<?xml version="1.0" encoding="iso-8859-1"?>
<!-- Generator: Adobe Illustrator 19.0.0, SVG Export Plug-In . SVG Version: 6.00 Build 0)  -->
<svg version="1.1" id="Capa_1" xmlns="http://www.w3.org/2000/svg" xmlns:xlink="http://www.w3.org/1999/xlink" x="0px" y="0px"
	 viewBox="0 0 512 512" style="enable-background:new 0 0 512 512;" xml:space="preserve">
<g>
	<g>
		<g>
			<path d="M256,0C114.615,0,0,114.615,0,256s114.615,256,256,256s256-114.615,256-256C511.84,114.682,397.318,0.16,256,0z
				 M256,494.933C124.041,494.933,17.067,387.959,17.067,256S124.041,17.067,256,17.067S494.933,124.041,494.933,256
				C494.785,387.898,387.898,494.785,256,494.933z"/>
			<path d="M389,98.867c-6.667-6.659-17.467-6.659-24.133,0l-36.208,36.204c-4.281,4.304-5.941,10.564-4.357,16.425l-17.297,17.3
				c-25.598-10.828-55.204-5.077-74.887,14.546L109.758,305.697c-5.86-1.584-12.12,0.077-16.424,4.357l-18.1,18.104
				c-1.601,1.6-2.5,3.77-2.5,6.033c0,2.263,0.899,4.433,2.5,6.033l96.542,96.542c1.6,1.601,3.77,2.5,6.033,2.5
				s4.434-0.899,6.033-2.5l18.1-18.1c4.281-4.305,5.942-10.567,4.357-16.428l122.359-122.356
				c19.627-19.682,25.379-49.29,14.547-74.889l17.301-17.301c5.86,1.669,12.163-0.001,16.428-4.353l36.2-36.204
				c6.658-6.668,6.658-17.469,0-24.138L389,98.867z M177.808,418.667l-84.475-84.475l12.067-12.071l84.475,84.479L177.808,418.667z
				 M195.908,388.496L123.5,316.087l114.65-114.645l72.408,72.408L195.908,388.496z M322.015,261.173L322.015,261.173
				l-71.263-71.263c20.322-14.503,48.149-12.194,65.803,5.46S336.518,240.851,322.015,261.173z M334.273,189.794
				c-3.444-4.561-7.506-8.622-12.067-12.066l12.486-12.486l12.067,12.067L334.273,189.794z M364.867,171.279l-0.008-0.008
				l-24.133-24.133l36.209-36.204l24.133,24.137L364.867,171.279z"/>
			<path d="M364.883,135.079c-1.644,1.587-2.568,3.777-2.558,6.062c0.015,0.544,0.07,1.086,0.167,1.621
				c0.175,0.596,0.341,1.108,0.517,1.621c0.25,0.513,0.508,1.025,0.767,1.45c0.301,0.481,0.675,0.913,1.108,1.279
				c1.563,1.627,3.719,2.552,5.975,2.563c2.281-0.011,4.462-0.934,6.059-2.563c0.433-0.367,0.807-0.798,1.108-1.279
				c0.258-0.425,0.508-0.937,0.767-1.45c0.195-0.525,0.337-1.068,0.425-1.621c0.144-0.528,0.203-1.075,0.175-1.621
				c0.037-2.274-0.857-4.464-2.475-6.063C373.526,131.924,368.274,131.924,364.883,135.079z"/>
		</g>
	</g>
</g>
<g>
</g>
<g>
</g>
<g>
</g>
<g>
</g>
<g>
</g>
<g>
</g>
<g>
</g>
<g>
</g>
<g>
</g>
<g>
</g>
<g>
</g>
<g>
</g>
<g>
</g>
<g>
</g>
<g>
</g>
</svg>
