<?xml version="1.0" encoding="iso-8859-1"?>
<!-- Generator: Adobe Illustrator 19.0.0, SVG Export Plug-In . SVG Version: 6.00 Build 0)  -->
<svg version="1.1" id="Capa_1" xmlns="http://www.w3.org/2000/svg" xmlns:xlink="http://www.w3.org/1999/xlink" x="0px" y="0px"
	 viewBox="0 0 512 512" style="enable-background:new 0 0 512 512;" xml:space="preserve">
<g>
	<g>
		<g>
			<path d="M256,0C114.615,0,0,114.615,0,256s114.615,256,256,256s256-114.615,256-256C511.84,114.682,397.318,0.16,256,0z
				 M256,494.933C124.041,494.933,17.067,387.959,17.067,256S124.041,17.067,256,17.067S494.933,124.041,494.933,256
				C494.785,387.898,387.898,494.785,256,494.933z"/>
			<path d="M413.133,358.4l19.567-19.567c2.441-2.44,3.171-6.11,1.85-9.299s-4.432-5.268-7.884-5.267h-52.608
				c12.092-20.719,18.468-44.277,18.475-68.267c0-75.405-61.128-136.533-136.533-136.533S119.467,180.595,119.467,256
				S180.595,392.533,256,392.533h170.667c3.451,0,6.563-2.079,7.883-5.268s0.59-6.859-1.85-9.299L413.133,358.4z M136.533,256
				c0-65.98,53.487-119.467,119.467-119.467S375.467,190.02,375.467,256S321.98,375.467,256,375.467
				C190.051,375.393,136.607,321.949,136.533,256z M395.033,364.434l11.034,11.033h-84.115c15.571-8.648,29.313-20.241,40.46-34.133
				h43.655l-11.034,11.034c-1.601,1.6-2.5,3.77-2.5,6.033S393.432,362.834,395.033,364.434z"/>
			<path d="M256,170.667c4.713,0,8.533-3.82,8.533-8.533s-3.82-8.533-8.533-8.533c-56.528,0.062-102.338,45.872-102.4,102.4
				c0,4.713,3.82,8.533,8.533,8.533s8.533-3.82,8.533-8.533C170.722,208.895,208.895,170.722,256,170.667z"/>
			<path d="M256,187.733c-37.703,0-68.267,30.564-68.267,68.267s30.564,68.267,68.267,68.267
				c37.685-0.043,68.224-30.582,68.267-68.267C324.267,218.297,293.703,187.733,256,187.733z M256,307.2
				c-28.264-0.031-51.169-22.936-51.2-51.2c0-28.277,22.923-51.2,51.2-51.2s51.2,22.923,51.2,51.2S284.277,307.2,256,307.2z"/>
		</g>
	</g>
</g>
<g>
</g>
<g>
</g>
<g>
</g>
<g>
</g>
<g>
</g>
<g>
</g>
<g>
</g>
<g>
</g>
<g>
</g>
<g>
</g>
<g>
</g>
<g>
</g>
<g>
</g>
<g>
</g>
<g>
</g>
</svg>
