<?xml version="1.0" encoding="iso-8859-1"?>
<!-- Generator: Adobe Illustrator 19.0.0, SVG Export Plug-In . SVG Version: 6.00 Build 0)  -->
<svg version="1.1" id="Capa_1" xmlns="http://www.w3.org/2000/svg" xmlns:xlink="http://www.w3.org/1999/xlink" x="0px" y="0px"
	 viewBox="0 0 512 512" style="enable-background:new 0 0 512 512;" xml:space="preserve">
<g>
	<g>
		<g>
			<path d="M256,0C114.615,0,0,114.615,0,256s114.615,256,256,256s256-114.615,256-256C511.84,114.682,397.318,0.16,256,0z
				 M256,494.933C124.041,494.933,17.067,387.959,17.067,256S124.041,17.067,256,17.067S494.933,124.041,494.933,256
				C494.785,387.898,387.898,494.785,256,494.933z"/>
			<path d="M302.55,121.591c-4.558-0.03-8.795,2.341-11.154,6.242c-6.493,10.352-17.579,28.698-27.582,48.14
				c-5.933-10.068-11.368-18.922-15.668-25.773c-2.821-4.515-7.77-7.258-13.094-7.258c-5.324,0-10.273,2.743-13.094,7.258
				c-21.95,34.967-73.012,121-73.012,164.533c0,41.725,38.629,75.675,86.108,75.675c47.479,0,86.104-33.95,86.104-75.675
				c-0.237-7.925-1.443-15.791-3.593-23.423c25.347-4.595,44.192-26.041,45.489-51.769c0-29.942-34.512-88.1-49.258-111.558
				C311.447,124.008,307.167,121.576,302.55,121.591z M235.054,373.342c-38.071,0-69.042-26.292-69.042-58.608
				c0-31.508,35.4-99.4,69.037-153.283c33.638,53.875,69.042,121.767,69.042,153.283
				C304.092,347.05,273.121,373.342,235.054,373.342z M312.571,274.863L312.571,274.863c-10.61-28.052-23.499-55.187-38.538-81.136
				c9.275-19.296,20.714-38.807,28.52-51.51c21.579,35.05,43.433,77.508,43.433,97.325
				C344.594,257.732,330.657,272.464,312.571,274.863z"/>
			<path d="M214.741,328.242c-3.503-2.691-6.424-6.065-8.587-9.917c-1.896-3.376-2.905-7.178-2.933-11.05
				c0.287-5.586,1.346-11.105,3.146-16.4c1.344-4.517-1.229-9.269-5.746-10.613c-4.517-1.344-9.269,1.229-10.613,5.746
				c-2.276,6.873-3.574,14.032-3.854,21.267c0.019,6.73,1.746,13.345,5.021,19.225c3.263,5.873,7.683,11.024,12.992,15.142
				c3.701,2.903,9.053,2.264,11.967-1.428S218.425,331.167,214.741,328.242z"/>
		</g>
	</g>
</g>
<g>
</g>
<g>
</g>
<g>
</g>
<g>
</g>
<g>
</g>
<g>
</g>
<g>
</g>
<g>
</g>
<g>
</g>
<g>
</g>
<g>
</g>
<g>
</g>
<g>
</g>
<g>
</g>
<g>
</g>
</svg>
