<?xml version="1.0" encoding="iso-8859-1"?>
<!-- Generator: Adobe Illustrator 19.0.0, SVG Export Plug-In . SVG Version: 6.00 Build 0)  -->
<svg version="1.1" id="Capa_1" xmlns="http://www.w3.org/2000/svg" xmlns:xlink="http://www.w3.org/1999/xlink" x="0px" y="0px"
	 viewBox="0 0 512 512" style="enable-background:new 0 0 512 512;" xml:space="preserve">
<g>
	<g>
		<g>
			<path d="M256,0C114.615,0,0,114.615,0,256s114.615,256,256,256s256-114.615,256-256C511.84,114.682,397.318,0.16,256,0z
				 M256,494.933C124.041,494.933,17.067,387.959,17.067,256S124.041,17.067,256,17.067S494.933,124.041,494.933,256
				C494.785,387.898,387.898,494.785,256,494.933z"/>
			<path d="M426.476,292.448c-2.532-41.44-29.859-77.239-69.165-90.608c5.85-39.745-12.08-79.241-45.852-100.998
				c-33.772-21.757-77.147-21.757-110.919,0c-33.772,21.757-51.702,61.252-45.852,100.998c-39.357,13.336-66.74,49.151-69.29,90.628
				c-2.55,41.477,20.239,80.377,57.666,98.434c37.427,18.057,82.058,11.684,112.936-16.126
				c30.881,27.749,75.471,34.081,112.857,16.027C406.243,372.748,429.008,333.888,426.476,292.448z M216.127,111.863
				c28.1-14.851,62.126-12.854,88.296,5.181s40.149,49.121,36.275,80.667c-30.555-5.243-61.818,3.928-84.698,24.846
				c-22.88-20.918-54.143-30.089-84.698-24.846c-0.406-3.311-0.618-6.642-0.635-9.978
				C170.509,155.951,188.027,126.713,216.127,111.863z M256,247.687c5.537,7.363,9.84,15.578,12.742,24.322
				c-4.215,0.672-8.474,1.025-12.742,1.058c-4.268-0.033-8.527-0.387-12.742-1.058C246.16,263.264,250.463,255.05,256,247.687z
				 M226.657,267.758c-24.441-9.006-43.456-28.646-51.666-53.366c25.01-4.024,50.494,3.528,69.273,20.53
				C236.433,244.695,230.465,255.826,226.657,267.758z M267.735,234.922c18.779-17.002,44.263-24.554,69.273-20.53
				c-8.21,24.72-27.224,44.36-51.666,53.366C281.535,255.826,275.567,244.696,267.735,234.922z M152.673,376.516
				c-30.641-13.768-50.33-44.257-50.273-77.849c0.064-35.768,22.41-67.707,55.991-80.024c9.896,30.941,33.836,55.382,64.565,65.917
				c-4.136,27.791,3.597,56.041,21.309,77.853C219.185,384.76,183.314,390.284,152.673,376.516z M239.569,288.689
				c10.87,1.926,21.993,1.926,32.863,0c0.406,3.311,0.618,6.642,0.635,9.978c-0.007,18.395-5.997,36.289-17.067,50.98
				C242.777,332.251,236.88,310.374,239.569,288.689z M408.289,313.627c-7.228,40.734-42.652,70.403-84.022,70.373
				c-20.856-0.007-40.98-7.691-56.531-21.588c17.713-21.811,25.445-50.061,21.309-77.853c30.729-10.535,54.669-34.977,64.565-65.918
				C392.464,232.847,415.517,272.893,408.289,313.627z"/>
		</g>
	</g>
</g>
<g>
</g>
<g>
</g>
<g>
</g>
<g>
</g>
<g>
</g>
<g>
</g>
<g>
</g>
<g>
</g>
<g>
</g>
<g>
</g>
<g>
</g>
<g>
</g>
<g>
</g>
<g>
</g>
<g>
</g>
</svg>
